<svg width="34" height="40" viewBox="0 0 34 40" fill="none" xmlns="http://www.w3.org/2000/svg">
<g clip-path="url(#clip0_2004_284)">
<path d="M8.41465 20.5566C8.40163 20.5176 8.38861 20.4655 8.3821 20.4199C8.31049 19.8047 8.24213 19.1243 8.18028 18.5384C8.09564 17.679 8.00124 16.6862 7.93288 15.9896C7.88731 15.5176 7.73757 15.0684 7.51947 14.7331C7.37299 14.5182 7.21023 14.3587 7.02794 14.2806C6.88145 14.222 6.70241 14.2155 6.51687 14.2871C6.26296 14.3848 5.97976 14.5898 5.664 14.9479C5.38406 15.2669 5.16596 15.6934 4.98366 16.1458C4.7265 16.8066 4.57351 17.5098 4.51166 17.9915C4.50515 18.0241 4.50515 18.0501 4.49213 18.0762L2.74083 28.0176C2.71478 28.1478 2.6627 28.265 2.58458 28.3561C1.99538 29.1146 1.62429 29.7656 1.51687 30.293C1.43874 30.6803 1.51687 30.9928 1.77403 31.237L8.21934 37.6823C8.6295 38.0762 9.10476 38.3236 9.67442 38.4277C10.2962 38.5449 11.0221 38.4798 11.8554 38.252C11.8684 38.252 11.888 38.2454 11.901 38.2454C12.2167 38.1608 12.6301 38.0599 13.0273 37.959C14.7558 37.5391 16.263 37.168 17.6594 35.8984L19.4563 34.0234C19.4726 33.9909 19.5019 33.9648 19.5279 33.9388C19.554 33.9128 19.7298 33.737 19.9674 33.5124C21.1979 32.3112 22.718 30.8268 21.7936 29.528L21.0742 28.8086C20.7259 29.1471 20.3548 29.4759 19.9999 29.7917C19.6744 30.0781 19.3717 30.3418 19.095 30.6217C18.7988 30.918 18.3203 30.918 18.0208 30.6217C17.7246 30.3223 17.7246 29.847 18.0208 29.5475C18.3007 29.2676 18.6425 28.9648 18.9973 28.6491C20.2148 27.5749 21.6113 26.3477 20.8626 25.2702L20.1497 24.5573C20.1106 24.5182 20.0781 24.4727 20.0488 24.4271C19.6386 24.847 19.1894 25.2474 18.7467 25.638C18.4212 25.9245 18.1184 26.1881 17.8417 26.4681C17.5455 26.7643 17.067 26.7643 16.7675 26.4681C16.468 26.1719 16.4713 25.6934 16.7675 25.3939C17.0475 25.1139 17.3893 24.8112 17.7441 24.4954C18.9615 23.4212 20.358 22.194 19.6093 21.1165L18.8964 20.4036C18.8443 20.3516 18.8053 20.3027 18.7727 20.2409L16.6829 22.3307C16.3867 22.627 15.9081 22.627 15.6087 22.3307C15.3092 22.0345 15.3124 21.556 15.6087 21.2565L21.2141 15.6413C22.1516 14.7038 22.3665 13.7272 22.1191 12.9883C22.0279 12.7181 21.8782 12.4772 21.6926 12.2917C21.5071 12.1061 21.2662 11.9564 20.996 11.8652C20.2669 11.6243 19.2936 11.8457 18.33 12.8092L8.49929 22.64C8.20307 22.9362 7.72455 22.9362 7.42507 22.64C7.12559 22.3438 7.12885 21.8652 7.42507 21.5658L8.42442 20.5664L8.41465 20.5566ZM27.093 7.91341C26.6959 8.33659 26.0384 8.34961 25.6217 7.95898C25.1985 7.56185 25.1855 6.9043 25.5761 6.48763L28.4472 3.43099C28.8443 3.00781 29.5051 2.99479 29.9186 3.38542C30.3417 3.78255 30.3548 4.4401 29.9641 4.85677L27.093 7.91341ZM14.3098 7.69857C14.733 8.0957 14.746 8.75651 14.3554 9.16992C13.9583 9.5931 13.2975 9.60612 12.8841 9.21549L9.82416 6.3444C9.40424 5.94401 9.39122 5.28646 9.77859 4.87305C10.1757 4.44987 10.8365 4.43685 11.2499 4.82747L14.3098 7.69857ZM20.7324 5.19531C20.7486 5.76823 20.2962 6.25 19.7265 6.26953C19.1568 6.28906 18.6718 5.83333 18.6523 5.26367L18.5253 1.07422C18.5058 0.504556 18.9615 0.0195297 19.5312 -1.53296e-06C20.1041 -0.0162776 20.5859 0.436196 20.6022 1.00586L20.7324 5.19531ZM25.026 20.6087C24.6028 20.2116 24.5898 19.5508 24.9804 19.1374C25.3775 18.7142 26.0351 18.7012 26.4518 19.0918L29.5084 21.9629C29.9316 22.36 29.9446 23.0176 29.554 23.4342C29.1568 23.8574 28.4993 23.8704 28.0826 23.4798L25.026 20.6087ZM28.763 14.4368C28.1933 14.4564 27.7083 14.0006 27.6887 13.431C27.6725 12.8613 28.1249 12.3763 28.6946 12.3568L32.8808 12.2168C33.4505 12.1973 33.9355 12.653 33.955 13.2227C33.9745 13.7923 33.5188 14.2773 32.9492 14.2969L28.763 14.4368ZM19.8176 19.196C19.873 19.2285 19.9283 19.2676 19.9804 19.3197L20.7259 20.0651C20.7649 20.1042 20.804 20.1562 20.8365 20.2018C21.6731 21.3477 21.5429 22.3698 20.9732 23.3008C21.0742 23.3398 21.1751 23.3952 21.2532 23.4766L21.9986 24.222C22.0377 24.2611 22.0768 24.3132 22.1093 24.3587C23.0078 25.5957 22.7831 26.6764 22.1093 27.6595C22.1419 27.6758 22.1647 27.7051 22.2005 27.7376L22.9459 28.4831C22.985 28.5221 23.024 28.5742 23.0566 28.6198C24.7851 30.9831 22.7246 32.9883 21.0709 34.6061L20.6445 35.0326L18.7988 36.9694L18.7402 37.0247C17.0507 38.5579 15.3775 38.9681 13.4407 39.4401C13.1152 39.5182 12.7897 39.6029 12.3339 39.7201C12.3209 39.7201 12.3144 39.7266 12.3014 39.7266C11.2532 40.013 10.3027 40.0814 9.44981 39.9284C8.58393 39.7721 7.83197 39.3848 7.20372 38.7695L0.751894 32.321C0.100852 31.6927 -0.123757 30.918 0.0617898 29.9967C0.201764 29.2611 0.631451 28.444 1.30202 27.5651L3.02728 17.819V17.7799C3.10541 17.2233 3.28119 16.3997 3.58393 15.6055C3.81505 15.0098 4.12755 14.4271 4.53445 13.9551C5.02598 13.3984 5.51101 13.0566 5.98952 12.8743C6.57872 12.6497 7.14187 12.679 7.63991 12.8939C8.10541 13.0892 8.49929 13.444 8.79877 13.8965C9.16335 14.4401 9.40098 15.1335 9.46609 15.8561C9.51817 16.4518 9.62234 17.4349 9.71999 18.3984L9.79812 19.2025L17.2525 11.7415C18.6848 10.3092 20.2343 10.026 21.4746 10.4329C21.9726 10.5957 22.4121 10.8659 22.7766 11.2305C23.1412 11.5951 23.4114 12.0345 23.5742 12.5326C23.9843 13.7695 23.7044 15.3418 22.2981 16.748L19.8274 19.2188L19.8176 19.196Z" fill="#004AAD"/>
</g>
<defs>
<clipPath id="clip0_2004_284">
<rect width="33.9551" height="40" fill="white"/>
</clipPath>
</defs>
</svg>
