<svg width="43" height="40" viewBox="0 0 43 40" fill="none" xmlns="http://www.w3.org/2000/svg">
<g clip-path="url(#clip0_2004_316)">
<path fill-rule="evenodd" clip-rule="evenodd" d="M42.9959 12.3477L30.7721 24.6953V18.5441C23.0424 16.9426 16.9363 18.7078 12.2987 24.5872C13.1038 12.4953 21.3636 6.66002 30.7717 6.27373L30.7721 0L42.9959 12.3477Z" fill="#004AAD"/>
<path d="M2.41712 8.30875H14.8827C13.2777 9.69436 11.8351 11.305 10.5915 13.1426H4.83388V35.1665H33.037V30.0324L37.8705 25.2811V37.5832C37.8705 38.9178 36.7883 40 35.4537 40H2.41712C1.08224 40 0 38.9178 0 37.5832V10.7255C0 9.39065 1.08224 8.30875 2.41712 8.30875Z" fill="#004AAD"/>
</g>
<defs>
<clipPath id="clip0_2004_316">
<rect width="42.9959" height="40" fill="white"/>
</clipPath>
</defs>
</svg>
