<svg width="110" height="108" viewBox="0 0 110 108" fill="none" xmlns="http://www.w3.org/2000/svg">
<g filter="url(#filter0_d_55_301)">
<circle cx="59.5" cy="50" r="50" fill="#004AAD"/>
<g clip-path="url(#clip0_55_301)">
<path fill-rule="evenodd" clip-rule="evenodd" d="M71.7313 42.6737L71.4075 42.35L73.2588 40.4987C75.01 38.7462 75.01 35.88 73.2588 34.1275L71.4338 32.3025C69.6813 30.55 66.815 30.55 65.0625 32.3025L63.2113 34.1537L62.8863 33.8287C62.435 33.3787 61.7038 33.3787 61.2538 33.83L60.6 34.4825C60.1488 34.935 60.1488 35.6662 60.6 36.1175L61.6775 37.195L47.8525 51.02C47.0263 54.15 46.4675 56.175 46.4175 57.41L45.8663 59.7937C45.6913 60.5562 45.03 61.5887 44.4213 62.5412C43.6038 63.8225 42.8538 64.995 42.8538 66.1112C42.8538 68.065 43.8725 69.3912 45.2375 70.0775C45.8313 70.375 46.4863 70.5412 47.1413 70.575C47.7925 70.6087 48.4563 70.5137 49.0713 70.2912C50.525 69.7625 51.7075 68.555 51.915 66.67L51.9213 66.59C52.0163 65.015 51.1638 63.715 50.2625 62.3437L50.2675 62.3412C49.7063 61.4862 49.1188 60.5912 48.9313 59.7875L48.75 59.0137C50.0488 58.8562 51.9538 58.3812 54.6325 57.8L68.4575 43.975L69.4438 44.9612C69.895 45.4125 70.6275 45.4125 71.0775 44.9612L71.7313 44.3075C71.8386 44.2002 71.9237 44.0729 71.9818 43.9327C72.0398 43.7925 72.0697 43.6423 72.0697 43.4906C72.0697 43.3389 72.0398 43.1887 71.9818 43.0485C71.9237 42.9083 71.8386 42.781 71.7313 42.6737ZM59.2113 51.0012L54.6213 46.41L61.3075 39.7237L65.8988 44.315L59.2113 51.0012ZM47.3988 60.1437C47.95 62.505 50.4713 64.5375 50.3525 66.4975C49.9675 69.9737 44.4288 69.845 44.4288 66.1112C44.4288 64.78 46.925 62.1937 47.3988 60.1437Z" fill="white"/>
<path d="M61.1025 18.0413C56.7812 17.8238 52.6112 18.4788 48.7637 19.8513C40.7605 22.7079 34.2188 28.6251 30.5762 36.3025C28.8262 39.9938 27.7575 44.0775 27.5412 48.3975C27.3237 52.7188 27.9787 56.8888 29.3512 60.7363C30.7787 64.7363 32.975 68.3763 35.7687 71.4663C38.5625 74.5538 41.9637 77.1038 45.8012 78.9238C49.4937 80.6738 53.5775 81.7425 57.8975 81.9588C62.2187 82.1763 66.3887 81.5213 70.2362 80.1488C78.2394 77.2922 84.7811 71.375 88.4237 63.6975C90.1737 60.0063 91.2425 55.9225 91.4587 51.6025C91.6762 47.2813 91.0212 43.1113 89.6487 39.2638C88.2344 35.3006 86.0538 31.6546 83.2312 28.5338C80.4081 25.4139 76.9988 22.8799 73.1975 21.0763C69.5062 19.3263 65.4225 18.2575 61.1025 18.0413ZM39.31 34.12L73.2812 71.6763C71.2571 72.9672 69.0614 73.967 66.7587 74.6463C64.0675 75.4388 61.1912 75.7988 58.2137 75.65C54.7325 75.475 51.4525 74.6188 48.4975 73.2188C45.4325 71.765 42.705 69.7163 40.4537 67.2275C38.2012 64.7388 36.4362 61.82 35.2975 58.6238C34.1987 55.545 33.675 52.1963 33.85 48.7138H33.845C33.9937 45.7463 34.6412 42.92 35.7025 40.3113C36.615 38.0713 37.8362 35.99 39.31 34.12ZM78.1587 67.6525L43.8025 29.6688C46.0137 27.9588 48.505 26.605 51.1887 25.6875C54.1787 24.6638 57.4187 24.1813 60.7862 24.35C64.2687 24.525 67.5487 25.3813 70.5025 26.7813C73.5675 28.235 76.295 30.2825 78.5462 32.7713C80.7975 35.2613 82.5625 38.18 83.7025 41.375C84.8 44.4538 85.3237 47.8038 85.15 51.2863C84.9812 54.6538 84.1762 57.8288 82.86 60.7013C81.6787 63.2788 80.0812 65.6225 78.1587 67.6525Z" fill="white"/>
</g>
</g>
<defs>
<filter id="filter0_d_55_301" x="0.5" y="0" width="109" height="108" filterUnits="userSpaceOnUse" color-interpolation-filters="sRGB">
<feFlood flood-opacity="0" result="BackgroundImageFix"/>
<feColorMatrix in="SourceAlpha" type="matrix" values="0 0 0 0 0 0 0 0 0 0 0 0 0 0 0 0 0 0 127 0" result="hardAlpha"/>
<feOffset dx="-5" dy="4"/>
<feGaussianBlur stdDeviation="2"/>
<feComposite in2="hardAlpha" operator="out"/>
<feColorMatrix type="matrix" values="0 0 0 0 0 0 0 0 0 0.290196 0 0 0 0 0.678431 0 0 0 0.4 0"/>
<feBlend mode="normal" in2="BackgroundImageFix" result="effect1_dropShadow_55_301"/>
<feBlend mode="normal" in="SourceGraphic" in2="effect1_dropShadow_55_301" result="shape"/>
</filter>
<clipPath id="clip0_55_301">
<rect width="64" height="64" fill="white" transform="translate(27.5 18)"/>
</clipPath>
</defs>
</svg>
