<svg width="110" height="108" viewBox="0 0 110 108" fill="none" xmlns="http://www.w3.org/2000/svg">
<g filter="url(#filter0_d_55_306)">
<circle cx="59.5" cy="50" r="50" fill="#004AAD"/>
<g clip-path="url(#clip0_55_306)">
<path d="M30.5177 50.7635C31.9526 52.0427 33.3865 53.2521 34.8229 54.3906C36.7188 51.5115 38.7844 48.8714 41.0297 46.4854C40.6057 45.687 40.3661 44.775 40.3661 43.8089C40.3661 43.3318 40.424 42.8688 40.5349 42.4245C38.1891 40.9047 35.775 39.2099 33.2615 37.3214C31.4026 41.1547 30.362 45.4552 30.362 49.999H30.3682V50.0005H30.3615C30.3615 50.3089 30.3677 50.6161 30.3771 50.9219L30.5177 50.7635ZM34.649 34.787C37.1651 36.6849 39.5729 38.3859 41.9083 39.9073C42.95 38.7958 44.4323 38.1016 46.0745 38.1016C47.3771 38.1016 48.5771 38.5385 49.538 39.2734C50.2255 38.8177 50.9271 38.3781 51.6406 37.9589C54.6135 36.2109 57.8036 34.7854 61.2292 33.7C61.2042 33.4729 61.1927 33.2427 61.1927 33.0115C61.1927 32.1396 61.3672 31.3083 61.6849 30.5526C58.2052 27.6042 54.0844 24.9932 49.3411 22.6865C45.3833 24.1604 41.8328 26.4698 38.9016 29.401C37.2828 31.0182 35.8536 32.8266 34.649 34.787ZM53.3354 21.5172C57.0865 23.5359 60.4328 25.762 63.362 28.2188C64.3412 27.3604 65.5859 26.7958 66.9557 26.6656C67.263 25.1609 67.5531 23.6313 67.8286 22.0724C65.1891 21.2854 62.3943 20.8604 59.501 20.8604V20.8667H59.4984V20.8604C57.3839 20.8604 55.3229 21.0885 53.3354 21.5172ZM70.5625 23.0411C70.3203 24.3948 70.0667 25.7281 69.801 27.0401C71.7109 27.7568 73.1859 29.363 73.7208 31.3547C76.3063 31.1646 78.9953 31.1276 81.7958 31.2505C81.2563 30.6104 80.6917 29.9917 80.1 29.3995C77.3927 26.6938 74.1578 24.5188 70.5625 23.0411ZM84.013 34.2521C80.4344 33.9839 77.0406 33.9771 73.8245 34.2193C73.5609 35.5953 72.8536 36.8141 71.8594 37.7214C72.7052 39.025 73.4719 40.376 74.1568 41.776C75.1547 43.8182 75.9766 45.963 76.625 48.2104C76.8224 48.1901 77.0229 48.1786 77.2271 48.1786C79.7891 48.1786 81.9573 49.8661 82.6792 52.1932C84.5677 52.2594 86.5203 52.2943 88.5474 52.3068C88.6073 51.5448 88.6396 50.7766 88.6396 50.001H88.6333V49.9995V49.9984H88.6396C88.638 44.199 86.9396 38.7943 84.013 34.2521ZM88.1813 55.1589C86.3349 55.1458 84.549 55.1135 82.8151 55.0563C82.3521 57.2802 80.5932 59.0307 78.3635 59.4818C78.4615 62.1469 78.3698 64.9333 78.0813 67.8427C79.7161 67.6703 81.374 67.4328 83.0609 67.1344C85.6042 63.6458 87.3906 59.5745 88.1813 55.1589ZM84.7063 69.7104L84.7125 69.7401L84.6781 69.7464C83.8859 70.7573 83.0344 71.7188 82.126 72.6271C76.3401 78.413 68.3401 81.9927 59.5021 81.9938V82H59.501H59.4995V81.9938C50.6615 81.9938 42.662 78.413 36.8734 72.6255C31.087 66.8385 27.5068 58.8385 27.5057 50.0005H27.5V49.999H27.5057C27.5057 41.1599 31.087 33.1604 36.8745 27.3729C42.662 21.5854 50.6599 18.0057 59.4984 18.0057V18H59.501V18.0057C68.3401 18.0057 76.3396 21.5859 82.1266 27.3745C87.9141 33.1604 91.4938 41.1599 91.4938 49.9984H91.5V49.9995V50.001H91.4938C91.4938 57.438 88.9583 64.2797 84.7063 69.7104ZM80.2286 70.4661C79.3911 70.5776 78.5609 70.674 77.7365 70.7537C77.6339 71.4906 77.5182 72.2349 77.3927 72.988C78.3438 72.2474 79.2484 71.4505 80.1 70.599L80.2286 70.4661ZM74.0729 75.2302C74.3646 73.7797 74.6125 72.3599 74.8172 70.9698C69.5979 71.2411 64.6099 70.8646 59.7828 69.8453C58.8391 70.9646 57.4281 71.6786 55.85 71.6786C55.7328 71.6786 55.6172 71.674 55.5036 71.6672C54.5927 73.9906 53.7109 76.251 52.9026 78.3859C55.0224 78.8771 57.2318 79.1385 59.499 79.1385V79.1323H59.5005H59.5016V79.1385C64.8083 79.1385 69.7854 77.7151 74.0729 75.2302ZM50.1474 77.6021C51.0323 75.25 51.9156 72.9792 52.813 70.6865C51.6828 69.8589 50.9031 68.5797 50.7391 67.1141C45.5615 65.0625 40.5417 62.2161 35.5786 58.5703C34.7828 59.9109 34.0208 61.3005 33.2906 62.7396C34.7172 65.6661 36.6224 68.3214 38.901 70.6C42.0307 73.7286 45.8661 76.15 50.1474 77.6021ZM31.8781 59.2958C32.3375 58.4573 32.8089 57.6354 33.2917 56.8297C32.4427 56.1615 31.5943 55.4693 30.7474 54.7547C31.0042 56.3125 31.3844 57.8318 31.8781 59.2958ZM51.3073 41.5276C51.613 42.2266 51.7833 42.9979 51.7833 43.8094C51.7833 44.3552 51.7057 44.8839 51.5625 45.3839C54.6984 46.8839 57.7807 48.0745 60.9047 49.0146C62.0401 45.6151 63.1313 42.0849 64.1474 38.3917C63.349 37.8833 62.6719 37.2031 62.1677 36.4026C58.9151 37.4255 55.8938 38.7708 53.0849 40.4219C52.4839 40.775 51.8896 41.1448 51.3073 41.5276ZM50.099 47.8568C49.0672 48.8844 47.6448 49.5188 46.074 49.5188C44.9271 49.5188 43.8583 49.1797 42.9625 48.5984C40.8427 50.8688 38.8917 53.3854 37.0948 56.1313C41.7484 59.5708 46.4359 62.2719 51.2464 64.238C52.0911 62.5526 53.8354 61.3948 55.849 61.3948C56.0427 61.3948 56.2328 61.4057 56.4219 61.4271C57.6182 58.301 58.8172 55.0781 59.9807 51.7245C56.6719 50.7245 53.412 49.4563 50.099 47.8568ZM69.3578 39.1313C68.7896 39.2964 68.1885 39.3849 67.5662 39.3849C67.3255 39.3849 67.087 39.3729 66.8531 39.3458C65.8516 42.9719 64.7813 46.4396 63.6677 49.7781C66.4021 50.4693 69.1917 50.9865 72.1026 51.3672C72.526 50.5083 73.1583 49.7724 73.9349 49.2245C73.3229 47.0536 72.5375 44.9901 71.5807 43.0318C70.9214 41.6833 70.1797 40.3849 69.3578 39.1313ZM75.4927 59.3266C73.2755 58.6208 71.6458 56.5974 71.5255 54.176C68.5005 53.7734 65.5953 53.2276 62.7443 52.4974C61.5417 55.9672 60.3026 59.2995 59.0661 62.5271C60.2391 63.4698 60.9901 64.9167 60.9901 66.537C60.9901 66.7505 60.976 66.9604 60.951 67.1677C65.5115 68.0745 70.2328 68.3807 75.1818 68.0828C75.5078 65.0167 75.6094 62.0995 75.4927 59.3266Z" fill="white"/>
</g>
</g>
<defs>
<filter id="filter0_d_55_306" x="0.5" y="0" width="109" height="108" filterUnits="userSpaceOnUse" color-interpolation-filters="sRGB">
<feFlood flood-opacity="0" result="BackgroundImageFix"/>
<feColorMatrix in="SourceAlpha" type="matrix" values="0 0 0 0 0 0 0 0 0 0 0 0 0 0 0 0 0 0 127 0" result="hardAlpha"/>
<feOffset dx="-5" dy="4"/>
<feGaussianBlur stdDeviation="2"/>
<feComposite in2="hardAlpha" operator="out"/>
<feColorMatrix type="matrix" values="0 0 0 0 0 0 0 0 0 0.290196 0 0 0 0 0.678431 0 0 0 0.4 0"/>
<feBlend mode="normal" in2="BackgroundImageFix" result="effect1_dropShadow_55_306"/>
<feBlend mode="normal" in="SourceGraphic" in2="effect1_dropShadow_55_306" result="shape"/>
</filter>
<clipPath id="clip0_55_306">
<rect width="64" height="64" fill="white" transform="translate(27.5 18)"/>
</clipPath>
</defs>
</svg>
