<svg width="110" height="108" viewBox="0 0 110 108" fill="none" xmlns="http://www.w3.org/2000/svg">
<g filter="url(#filter0_d_55_311)">
<circle cx="59.5" cy="50" r="50" fill="#004AAD"/>
<g clip-path="url(#clip0_55_311)">
<path fill-rule="evenodd" clip-rule="evenodd" d="M37.4924 73.9395V50.7851H47.9113C52.3476 51.5673 56.742 53.9556 61.1603 56.7559H69.2506C72.9166 56.9768 74.8332 60.6906 71.2747 63.1266C68.4386 65.2104 64.7069 65.091 60.8498 64.7506C58.2048 64.6193 58.0914 68.1659 60.8498 68.1838C61.8111 68.2614 62.856 68.0345 63.7636 68.0345C68.5401 68.0345 72.4987 67.115 74.9109 63.3296L76.105 60.4995L88.1658 54.5288C94.1903 52.5465 98.4772 58.8456 94.035 63.2281C85.6381 69.3647 76.6541 74.6546 67.2146 79.0206C60.5692 83.0628 53.9238 82.9255 47.2963 79.0206L37.4924 73.9395ZM52.7177 18L91.599 29.7384L85.7537 50.1463L83.0191 49.7283L87.1986 34.8016L87.2583 34.6105C87.4433 33.9296 87.3512 33.2032 87.0021 32.5901C86.653 31.9769 86.0754 31.5269 85.3954 31.3386L84.0819 30.9803V30.9385L77.8962 29.3025L51.8341 21.0749L52.7177 18ZM46.2873 22.1198L85.1924 33.8522L79.3232 54.2601L40.442 42.5277L46.2873 22.1198ZM59.8348 35.112C60.4894 34.4154 61.3359 33.9286 62.2673 33.7133C63.1986 33.498 64.1729 33.5639 65.0668 33.9027C65.9607 34.2414 66.734 34.8378 67.2887 35.6163C67.8435 36.3947 68.1548 37.3203 68.1833 38.2758C68.2117 39.2313 67.956 40.1737 67.4485 40.9838C66.9411 41.7939 66.2046 42.4352 65.3325 42.8265C64.4604 43.2179 63.4917 43.3416 62.5492 43.1821C61.6067 43.0226 60.7327 42.5871 60.0378 41.9306C59.1083 41.0524 58.565 39.8415 58.5269 38.5633C58.4889 37.2851 58.9592 36.044 59.8348 35.112ZM51.9595 27.0994L77.6872 35.0762C77.4597 35.8727 77.5561 36.7268 77.9553 37.4525C78.3545 38.1783 79.0243 38.7169 79.8188 38.9512L77.538 47.0236C77.142 46.9106 76.7277 46.8767 76.3186 46.9239C75.9095 46.971 75.5138 47.0983 75.1539 47.2985C74.7941 47.4987 74.4772 47.7678 74.2214 48.0904C73.9655 48.4131 73.7758 48.783 73.663 49.179L47.9292 41.2022C48.1563 40.4041 48.0583 39.5486 47.6567 38.8226C47.2551 38.0965 46.5825 37.5589 45.7858 37.3272L48.0904 29.2548C48.4868 29.3687 48.9017 29.4033 49.3115 29.3565C49.7212 29.3098 50.1177 29.1827 50.4782 28.9825C50.8388 28.7822 51.1562 28.5128 51.4125 28.1897C51.6687 27.8666 51.8586 27.496 51.9714 27.0994H51.9595ZM22.5 48.582H34.3578V76.2681H22.5V48.582Z" fill="white"/>
</g>
</g>
<defs>
<filter id="filter0_d_55_311" x="0.5" y="0" width="109" height="108" filterUnits="userSpaceOnUse" color-interpolation-filters="sRGB">
<feFlood flood-opacity="0" result="BackgroundImageFix"/>
<feColorMatrix in="SourceAlpha" type="matrix" values="0 0 0 0 0 0 0 0 0 0 0 0 0 0 0 0 0 0 127 0" result="hardAlpha"/>
<feOffset dx="-5" dy="4"/>
<feGaussianBlur stdDeviation="2"/>
<feComposite in2="hardAlpha" operator="out"/>
<feColorMatrix type="matrix" values="0 0 0 0 0 0 0 0 0 0.290196 0 0 0 0 0.678431 0 0 0 0.4 0"/>
<feBlend mode="normal" in2="BackgroundImageFix" result="effect1_dropShadow_55_311"/>
<feBlend mode="normal" in="SourceGraphic" in2="effect1_dropShadow_55_311" result="shape"/>
</filter>
<clipPath id="clip0_55_311">
<rect width="73.368" height="64" fill="white" transform="translate(22.5 18)"/>
</clipPath>
</defs>
</svg>
