<svg width="110" height="108" viewBox="0 0 110 108" fill="none" xmlns="http://www.w3.org/2000/svg">
<g filter="url(#filter0_d_55_296)">
<circle cx="59.5" cy="50" r="50" fill="#004AAD"/>
<g clip-path="url(#clip0_55_296)">
<path d="M38.7496 24.6368L61.047 46.2774H68.6499C56.3172 38.4029 56.513 27.5605 59.7903 18.0252C71.5295 24.5357 77.8947 32.3597 73.3165 46.2837H77.1559C75.4572 36.3822 80.509 31.8419 89.0403 28.7793C90.1643 35.3276 89.1729 42.3812 80.5343 46.2837H96.9084C97.5652 46.2837 98.0956 46.8142 98.0956 47.4709C98.0956 47.5214 98.0956 47.572 98.0893 47.6162C97.7862 54.8592 96.1002 61.1866 92.6334 66.3268C89.1287 71.5112 83.8369 75.4579 76.3539 77.8828C76.335 77.8891 76.316 77.8954 76.2908 77.9017V81.4948C76.2908 81.7726 76.0634 82 75.7856 82H53.545C53.1914 82 52.8946 81.7095 52.8946 81.3495V77.8701C52.8252 77.8449 52.7557 77.8133 52.6926 77.7754C45.8284 74.5296 40.985 70.2545 37.7771 65.1459C34.5566 60.0183 32.9968 54.0761 32.7127 47.5151C32.6874 46.8647 33.1926 46.309 33.843 46.2774C33.862 46.2774 33.8746 46.2774 33.8935 46.2774V46.2711H39.299L28.4376 36.2243L28.4502 36.2117C28.3997 36.1801 28.3555 36.1423 28.3113 36.1044C28.2987 36.0917 28.286 36.0854 28.2797 36.0728L22.9311 31.122C22.8806 31.0715 22.8301 31.021 22.7859 30.9642C20.4052 27.9646 20.0642 25.022 20.9609 22.6855C21.384 21.5741 22.0913 20.6143 22.988 19.8502C23.872 19.0987 24.9455 18.5494 26.1201 18.2526C28.8986 17.5453 32.2706 18.2399 35.0933 21.0816L38.7496 24.6368ZM70.7275 46.2774H72.6724L61.4069 22.3382L70.7275 46.2774ZM77.339 46.2774H78.7725L87.5184 31.4378L77.339 46.2774ZM85.7755 55.8822C85.9145 55.4086 86.407 55.1433 86.8806 55.2823C87.3542 55.4212 87.6194 55.9137 87.4805 56.3873C87.1143 57.6377 86.6722 58.8817 86.1481 60.1067C85.6366 61.3128 85.0557 62.4937 84.4179 63.6114C84.1779 64.0408 83.6348 64.1861 83.2054 63.9461C82.776 63.7061 82.6308 63.1631 82.8707 62.7337C83.4833 61.6665 84.0263 60.5488 84.5063 59.4184C85.0051 58.2628 85.4282 57.0756 85.7755 55.8822ZM81.7657 64.5271C82.0372 64.1166 82.5929 64.0092 82.997 64.2808C83.4075 64.5523 83.5149 65.108 83.2433 65.5122C82.7887 66.1878 82.3151 66.8319 81.8225 67.4382C81.3363 68.0381 80.8248 68.619 80.2943 69.1558C79.9533 69.5031 79.385 69.5094 79.0377 69.1684C78.6904 68.8274 78.6841 68.2591 79.0251 67.9118C79.5113 67.4129 79.9849 66.8825 80.4333 66.3268C80.9069 65.7521 81.3489 65.1522 81.7657 64.5271ZM39.7852 63.8893C42.7342 68.5874 47.205 72.5342 53.5577 75.5652H75.8172C82.6624 73.3109 87.4868 69.7051 90.6695 64.9943C93.7005 60.5046 95.2603 54.9855 95.6644 48.6518H35.1502C35.548 54.3224 36.9941 59.45 39.7852 63.8893ZM30.7614 35.1572L42.6205 46.1259H57.4791L37.9666 27.1879L30.7614 35.1572ZM23.1711 23.538C22.5586 25.1356 22.8427 27.2258 24.5919 29.4549L29.0186 33.5532L36.2679 25.5398C33.6473 22.9886 30.8688 19.4966 26.6947 20.5574C25.8675 20.7721 25.1224 21.151 24.5161 21.6688C23.9162 22.174 23.4489 22.8055 23.1711 23.538Z" fill="white"/>
</g>
</g>
<defs>
<filter id="filter0_d_55_296" x="0.5" y="0" width="109" height="108" filterUnits="userSpaceOnUse" color-interpolation-filters="sRGB">
<feFlood flood-opacity="0" result="BackgroundImageFix"/>
<feColorMatrix in="SourceAlpha" type="matrix" values="0 0 0 0 0 0 0 0 0 0 0 0 0 0 0 0 0 0 127 0" result="hardAlpha"/>
<feOffset dx="-5" dy="4"/>
<feGaussianBlur stdDeviation="2"/>
<feComposite in2="hardAlpha" operator="out"/>
<feColorMatrix type="matrix" values="0 0 0 0 0 0 0 0 0 0.290196 0 0 0 0 0.678431 0 0 0 0.4 0"/>
<feBlend mode="normal" in2="BackgroundImageFix" result="effect1_dropShadow_55_296"/>
<feBlend mode="normal" in="SourceGraphic" in2="effect1_dropShadow_55_296" result="shape"/>
</filter>
<clipPath id="clip0_55_296">
<rect width="77.5957" height="64" fill="white" transform="translate(20.5 18)"/>
</clipPath>
</defs>
</svg>
