<svg width="110" height="108" viewBox="0 0 110 108" fill="none" xmlns="http://www.w3.org/2000/svg">
<g filter="url(#filter0_d_55_292)">
<circle cx="59.5" cy="50" r="50" fill="#004AAD"/>
<g clip-path="url(#clip0_55_292)">
<path fill-rule="evenodd" clip-rule="evenodd" d="M62.6131 32.8715C56.8845 31.0714 52.086 32.3243 48.6936 35.3446C49.1054 35.5384 49.4697 35.82 49.7609 36.1698C50.0521 36.5196 50.263 36.9289 50.3789 37.3691C52.5675 45.7021 54.2089 42.1128 55.0023 45.1714C55.6327 47.341 56.0001 49.5784 56.0966 51.8357C56.1949 51.7971 56.2954 51.7642 56.3975 51.7372C56.7949 51.6299 57.2095 51.6023 57.6176 51.6561C58.0257 51.7098 58.4191 51.8438 58.7751 52.0503C59.1312 52.2568 59.4428 52.5318 59.6921 52.8593C59.9414 53.1868 60.1233 53.5604 60.2275 53.9586C61.7814 59.8022 61.8088 63.6322 60.4519 66.543C59.2591 68.9505 57.355 70.4497 54.7178 71.6206C55.2266 72.1185 55.7573 72.6109 56.3154 73.0924C60.6926 76.2221 64.5227 75.7953 68.0737 73.8584C70.9024 75.1989 73.8898 75.7297 77.1016 74.5259C81.8235 72.7532 86.6329 65.7715 88.8981 61.3944C93.8225 51.9287 95.5296 39.782 84.4881 33.8618C81.4733 32.2477 77.7089 31.7717 72.9378 32.8441C71.7776 33.231 70.5737 33.4718 69.354 33.5609C69.3048 31.3699 69.621 29.1861 70.2896 27.0991C71.1101 24.5812 72.5692 22.3191 74.5245 20.5333C74.6995 20.4145 74.8469 20.2595 74.9565 20.0787C75.0662 19.8979 75.1356 19.6956 75.16 19.4855C75.1845 19.2755 75.1634 19.0626 75.0982 18.8615C75.0329 18.6603 74.9252 18.4756 74.7821 18.3198C74.6391 18.1641 74.4642 18.041 74.2693 17.9589C74.0744 17.8769 73.8641 17.8378 73.6528 17.8443C73.4414 17.8508 73.2339 17.9028 73.0444 17.9967C72.855 18.0906 72.688 18.2242 72.5548 18.3885C70.2169 20.5106 68.4725 23.2054 67.4937 26.2072L67.3678 26.5957C64.3476 21.2829 59.1825 18.5143 50.7564 19.8056L47.4297 20.1503C49.8645 25.2114 52.8574 30.371 59.0731 31.1316C61.4367 31.4215 63.9974 30.8908 66.7331 29.4628L66.5909 30.0373H66.6237C66.4674 31.2106 66.3961 32.3937 66.4103 33.5773C65.1229 33.476 63.8499 33.2376 62.6131 32.866V32.8715ZM35.1025 35.454C38.0844 30.7157 36.9901 26.4097 29.6693 22.793C27.4807 28.3028 28.3835 34.1846 35.1025 35.454ZM49.684 73.2948L52.3103 72.1677L55.7081 80.0193C56.4522 81.7428 53.8314 82.8754 53.0872 81.1519L49.6949 73.3003L49.684 73.2948ZM42.6695 49.9097C47.6705 48.1971 49.4815 46.1781 47.386 38.1624C43.4574 41.2647 38.8887 43.4862 42.6914 49.9097H42.6695ZM39.0967 41.6696C43.7584 40.0665 45.449 38.1898 43.4738 30.7267C39.8189 33.6101 35.573 35.6784 39.0967 41.6696ZM48.5186 70.8108C42.5875 73.935 39.1787 73.8584 33.6087 64.9399C39.8845 64.0043 45.8977 61.7281 48.5186 70.8108ZM44.021 60.3602C38.7465 63.1398 35.6879 63.096 30.7581 55.1404C36.339 54.3088 41.7011 52.2734 44.021 60.3602ZM40.0159 51.0587C35.3487 53.5264 32.6129 53.4607 28.2357 46.4517C33.1874 45.7185 37.9312 43.913 40.0049 51.0861L40.0159 51.0587ZM36.443 42.8077C32.0658 45.1057 29.5598 45.051 25.5 38.4907C30.107 37.8013 34.5334 36.127 36.443 42.8077ZM51.216 69.618C57.5575 67.4294 59.8555 64.8906 57.158 54.7356C52.1954 58.686 46.412 61.5038 51.216 69.6344V69.618ZM46.702 59.2003C52.3377 57.2689 54.3621 54.9927 51.9875 45.9648C47.5556 49.4556 42.4124 51.9834 46.702 59.2003ZM50.4172 21.5838C56.786 23.3292 60.8568 24.1007 65.9234 28.6475C59.4779 27.0608 55.5932 25.6601 50.4172 21.5838Z" fill="white"/>
</g>
</g>
<defs>
<filter id="filter0_d_55_292" x="0.5" y="0" width="109" height="108" filterUnits="userSpaceOnUse" color-interpolation-filters="sRGB">
<feFlood flood-opacity="0" result="BackgroundImageFix"/>
<feColorMatrix in="SourceAlpha" type="matrix" values="0 0 0 0 0 0 0 0 0 0 0 0 0 0 0 0 0 0 127 0" result="hardAlpha"/>
<feOffset dx="-5" dy="4"/>
<feGaussianBlur stdDeviation="2"/>
<feComposite in2="hardAlpha" operator="out"/>
<feColorMatrix type="matrix" values="0 0 0 0 0 0 0 0 0 0.290196 0 0 0 0 0.678431 0 0 0 0.4 0"/>
<feBlend mode="normal" in2="BackgroundImageFix" result="effect1_dropShadow_55_292"/>
<feBlend mode="normal" in="SourceGraphic" in2="effect1_dropShadow_55_292" result="shape"/>
</filter>
<clipPath id="clip0_55_292">
<rect width="67.2337" height="64" fill="white" transform="translate(25.5 18)"/>
</clipPath>
</defs>
</svg>
