<svg width="38" height="40" viewBox="0 0 38 40" fill="none" xmlns="http://www.w3.org/2000/svg">
<g clip-path="url(#clip0_2004_374)">
<path d="M21.1166 0.192056C21.4128 -0.0813817 21.875 -0.0618504 22.1485 0.234374C22.4219 0.530598 22.4024 0.992837 22.1061 1.26627C20.8073 2.46745 19.8438 3.91927 19.2741 5.66081C18.7468 7.26237 18.5449 9.11784 18.7077 11.2533C18.9779 11.2305 19.2481 11.1979 19.5182 11.1523C20.0065 11.0677 20.4981 10.944 20.9929 10.7747C21.0189 10.765 21.0449 10.7585 21.071 10.752C22.7083 10.3841 24.1797 10.2832 25.5078 10.4134C26.8587 10.5436 28.0599 10.9147 29.1276 11.4876C32.5846 13.3464 34.2611 16.0807 34.7494 19.1341C34.8047 19.4727 34.8438 19.8177 34.8666 20.1628H35.7259C36.0124 20.1628 36.2468 20.3971 36.2468 20.6836C36.2468 20.7324 36.2402 20.778 36.2272 20.8236L34.4727 28.2129C34.4173 28.4538 34.2025 28.6133 33.9681 28.6133H33.1966C32.9264 29.248 32.627 29.8698 32.3112 30.4785C32.1973 30.6934 32.0768 30.918 31.9466 31.1491H37.4512C37.7376 31.1491 37.972 31.3835 37.972 31.6699C37.972 31.849 37.8809 32.0085 37.7409 32.1029L33.5612 35.2539L37.78 38.6784C38.0013 38.8607 38.0371 39.1862 37.8548 39.4076C37.7539 39.5345 37.6042 39.5996 37.4512 39.5996V39.6029H23.5905C22.6465 39.8698 21.7285 39.9382 20.8333 39.847C19.8796 39.7526 18.9583 39.4792 18.0697 39.0885C16.9011 39.6745 15.6804 40.0228 14.388 39.9967C12.9655 39.9674 11.4844 39.4857 9.93165 38.3724V38.3691C9.91212 38.3561 9.89259 38.3398 9.87631 38.3236C8.33009 36.9727 7.06381 35.5566 5.97983 34.1211C4.90236 32.6953 4.00066 31.2435 3.18686 29.8112C2.96225 29.4141 2.75392 29.0137 2.56512 28.61H1.14585C0.865897 28.61 0.638033 28.3887 0.625012 28.1152L0.00326722 20.7292C-0.0195192 20.4427 0.192069 20.1921 0.478528 20.1693L0.520845 20.166H1.15236C1.40626 18.0078 2.13543 16.0124 3.26499 14.3815C4.53777 12.5423 6.31512 11.1719 8.4896 10.5566C10.3125 10.0391 12.4024 10.0553 14.694 10.7747V10.778C15.2539 10.9473 15.8171 11.0807 16.3737 11.1654C16.6634 11.2109 16.9499 11.2435 17.2396 11.263C17.1452 9.91211 17.1843 8.66211 17.3503 7.50325C15.472 8.56771 13.7337 8.96484 12.1257 8.76953C8.18686 8.2845 6.28256 5.00976 4.73634 1.80013L6.84572 1.58203C12.3796 0.735676 15.6836 2.63672 17.5879 6.25651C17.6725 5.90169 17.7702 5.55338 17.8809 5.2181C18.5352 3.2194 19.6354 1.5625 21.1166 0.192056ZM31.5951 27.5749V26.0026C31.5951 25.7129 31.8294 25.4818 32.1159 25.4818C32.4056 25.4818 32.6367 25.7161 32.6367 26.0026V27.5749H33.5514L35.0651 21.2044H1.08725L1.62436 27.5749H2.91668V25.0521C2.91668 24.7656 3.15105 24.5312 3.43751 24.5312C3.72397 24.5312 3.95835 24.7656 3.95835 25.0521V27.5749H6.12631V26.0026C6.12631 25.7129 6.36069 25.4818 6.64715 25.4818C6.93686 25.4818 7.16798 25.7161 7.16798 26.0026V27.5749H9.18295V25.0521C9.18295 24.7656 9.41733 24.5312 9.70379 24.5312C9.99025 24.5312 10.2246 24.7656 10.2246 25.0521V27.5749H12.3926V26.0026C12.3926 25.7129 12.627 25.4818 12.9134 25.4818C13.1999 25.4818 13.4343 25.7161 13.4343 26.0026V27.5749H15.8236V25.0521C15.8236 24.7656 16.058 24.5312 16.3444 24.5312C16.6309 24.5312 16.8652 24.7656 16.8652 25.0521V27.5749H19.0332V26.0026C19.0332 25.7129 19.2676 25.4818 19.554 25.4818C19.8405 25.4818 20.0749 25.7161 20.0749 26.0026V27.5749H22.0899V25.0521C22.0899 24.7656 22.3242 24.5312 22.6107 24.5312C22.8971 24.5312 23.1315 24.7656 23.1315 25.0521V27.5749H25.2995V26.0026C25.2995 25.7129 25.5339 25.4818 25.8203 25.4818C26.1068 25.4818 26.3412 25.7161 26.3412 26.0026V27.5749H28.3822V25.0521C28.3822 24.7656 28.6166 24.5312 28.903 24.5312C29.1895 24.5312 29.4238 24.7656 29.4238 25.0521V27.5749H31.5951ZM28.9225 28.6165H28.9063H28.89H25.8692C25.8529 28.6165 25.8366 28.6198 25.8203 28.6198C25.8041 28.6198 25.7878 28.6198 25.7715 28.6165H22.6205H22.6074H22.5944H19.5964C19.5801 28.6165 19.5671 28.6198 19.5508 28.6198C19.5345 28.6198 19.5215 28.6198 19.5052 28.6165H16.3444H16.3412H12.9623C12.946 28.6165 12.933 28.6198 12.9167 28.6198C12.9004 28.6198 12.8874 28.6198 12.8711 28.6165H9.70704H9.70379H9.00392C9.20574 28.9388 9.42384 29.2513 9.65822 29.5573C10.4395 30.5794 11.3802 31.5039 12.4284 32.36C12.7409 32.6139 12.7897 33.0729 12.5358 33.3887C12.2819 33.7012 11.8229 33.75 11.5072 33.4928C10.3711 32.5651 9.34897 31.5625 8.49611 30.4427C8.05665 29.8665 7.65952 29.2578 7.31447 28.6165H6.69272C6.67644 28.6165 6.66342 28.6198 6.64715 28.6198C6.63087 28.6198 6.61785 28.6198 6.60157 28.6165H4.19598C4.28061 28.776 4.36525 28.9355 4.45639 29.0951C5.2409 30.472 6.10678 31.8685 7.14519 33.2454C8.16733 34.5996 9.35548 35.931 10.7943 37.194C12.0899 38.1185 13.2878 38.5189 14.4141 38.5417C15.5501 38.5645 16.6406 38.2129 17.6986 37.64C17.9102 37.5228 18.1543 37.526 18.3594 37.6204C19.2123 38.0241 20.0847 38.3073 20.9766 38.3984C21.8522 38.4863 22.7539 38.3887 23.6914 38.0371C24.8861 37.5879 26.1198 36.543 27.2559 35.2799C28.2878 34.1341 29.2285 32.819 29.9837 31.6081L30.0456 31.4681C30.0781 31.3932 30.127 31.3314 30.1823 31.2826C30.4981 30.7617 30.778 30.2637 31.0156 29.8112C31.2207 29.4206 31.416 29.0234 31.5983 28.623H28.9225V28.6165ZM33.405 20.166C33.3822 19.8958 33.3496 19.6289 33.3073 19.3652C32.8874 16.7415 31.4356 14.388 28.4375 12.7832C27.5358 12.2982 26.5169 11.9857 25.3646 11.875C24.1992 11.7611 22.8971 11.8522 21.4356 12.1745C20.8789 12.3633 20.319 12.5033 19.7559 12.6009C19.2123 12.6921 18.6621 12.7409 18.1087 12.7506C18.0664 12.7539 18.0241 12.7539 17.985 12.7506C17.3731 12.7539 16.7611 12.7051 16.1524 12.6074C15.5208 12.5098 14.8926 12.3633 14.2643 12.1712L14.2578 12.168V12.1712C12.2494 11.5397 10.4427 11.5202 8.88348 11.9629C7.05079 12.4837 5.55014 13.6458 4.46616 15.2116C3.50262 16.6016 2.86785 18.3073 2.62697 20.166H33.405ZM35.8952 32.194H31.3347C30.5176 33.5254 29.4824 34.987 28.3431 36.2533C27.5358 37.1484 26.6699 37.9557 25.778 38.5612H35.9831L32.4121 35.6608C32.3698 35.6315 32.3307 35.5957 32.2982 35.5501C32.1257 35.3223 32.1712 34.9967 32.3991 34.821L35.8952 32.194Z" fill="#004AAD"/>
</g>
<defs>
<clipPath id="clip0_2004_374">
<rect width="37.972" height="40" fill="white"/>
</clipPath>
</defs>
</svg>
