<svg width="59" height="40" viewBox="0 0 59 40" fill="none" xmlns="http://www.w3.org/2000/svg">
<g clip-path="url(#clip0_2004_295)">
<path d="M36.4061 0C41.2202 0 45.5863 1.95901 48.7512 5.10963C51.9113 8.26978 53.8608 12.6263 53.8608 17.45C53.8608 20.9724 52.8122 24.2612 51.02 27.0019L58.5748 35.2336L53.3651 39.9952L46.0725 31.9828C43.3079 33.8275 39.9762 34.8999 36.4061 34.8999C32.4309 34.8999 28.7607 33.5653 25.8246 31.3251C23.9943 33.1697 22.245 34.9237 20.7722 36.3966L10.653 26.4013L3.54147 33.3079L0 29.7664L10.715 19.3518C14.061 22.6978 17.3689 26.0057 20.7483 29.3422L22.3165 27.7598C20.2002 24.8713 18.9562 21.3155 18.9562 17.4547C18.9562 12.6406 20.9152 8.27455 24.0658 5.11439C27.2259 1.94471 31.5825 0 36.4061 0ZM24.9952 25.0572L31.9685 18.0172L27.817 13.8656L39.4948 13.7607V25.5434L35.5052 21.5539C33.5033 23.5796 30.9819 26.1296 28.4366 28.6988C30.6911 30.3432 33.4747 31.3203 36.4776 31.3203C40.2479 31.3203 43.6702 29.7855 46.1392 27.3117C48.613 24.8379 50.1478 21.4204 50.1478 17.6501C50.1478 13.8799 48.613 10.4576 46.1392 7.98856C43.6654 5.51478 40.2479 3.97998 36.4776 3.97998C32.7073 3.97998 29.285 5.51478 26.816 7.98856C24.3422 10.4623 22.8074 13.8799 22.8074 17.6501C22.8074 20.3765 23.613 22.9218 24.9952 25.0572Z" fill="#004AAD"/>
</g>
<defs>
<clipPath id="clip0_2004_295">
<rect width="58.5701" height="40" fill="white"/>
</clipPath>
</defs>
</svg>
