<svg width="40" height="40" viewBox="0 0 40 40" fill="none" xmlns="http://www.w3.org/2000/svg">
<g clip-path="url(#clip0_2004_61)">
<path d="M21.8632 36.8262C22.9839 36.6777 23.8693 37.7734 23.4895 38.8386C23.291 39.3786 22.8299 39.7577 22.2578 39.8335C20.9413 40.0028 19.6113 40.0431 18.2869 39.9538C13.4008 39.6248 9.00473 37.5077 5.74812 34.251C2.19687 30.6998 0 25.7934 0 20.3751C0 14.956 2.19687 10.0503 5.74812 6.4991C9.29936 2.94785 14.205 0.750982 19.6241 0.750982C21.5029 0.750982 23.334 1.02139 25.0791 1.52547C26.5109 1.93858 27.8904 2.51469 29.1907 3.24248L28.8039 2.22963C28.4811 1.38089 28.907 0.431339 29.755 0.107787C30.6037 -0.214982 31.5533 0.210949 31.8768 1.05968L33.5118 5.33775C33.5734 5.50052 33.6093 5.67191 33.6181 5.84574C33.7462 6.6429 33.2687 7.43302 32.4747 7.67373L28.0958 9.01326C27.2291 9.27585 26.3139 8.78662 26.0513 7.92069C25.7888 7.05476 26.278 6.13881 27.1439 5.87622L27.5042 5.76603C26.4664 5.20427 25.3712 4.7557 24.2374 4.42806C22.7861 4.00916 21.2387 3.78408 19.6241 3.78408C15.0428 3.78408 10.8945 5.64098 7.89262 8.6436C4.89 11.6454 3.0331 15.793 3.0331 20.3751C3.0331 24.9564 4.89 29.1039 7.89262 32.1065C10.6131 34.827 14.2746 36.6073 18.3471 36.9168C19.5115 37.0051 20.7096 36.9762 21.8632 36.8262ZM16.6199 12.3934C16.6199 11.5563 17.2991 10.8772 18.1368 10.8772C18.9739 10.8772 19.653 11.5563 19.653 12.3934V21.6247L25.9716 24.4023C26.7375 24.7391 27.0845 25.6332 26.7477 26.3991C26.4109 27.1642 25.5168 27.512 24.7509 27.1751L17.6031 24.0334C17.0286 23.8169 16.6199 23.2628 16.6199 22.6134V12.3934ZM27.147 35.2053C25.9263 35.8297 26.0889 37.6202 27.4042 38.0133C27.7848 38.1211 28.1638 38.0883 28.5186 37.9109C29.4971 37.4193 30.4365 36.8402 31.3173 36.19C31.7471 35.8696 31.9706 35.3647 31.9245 34.8309C31.8073 33.6516 30.4646 33.0537 29.5104 33.754C28.7654 34.3041 27.9747 34.7897 27.147 35.2053ZM33.3336 29.7698C32.6427 30.7998 33.4188 32.1847 34.6598 32.13C35.1452 32.1042 35.5797 31.8666 35.8517 31.4602C36.466 30.549 36.9966 29.5947 37.4515 28.5944C37.8899 27.6065 37.2068 26.4999 36.126 26.4538C35.5062 26.4334 34.9451 26.7797 34.6872 27.3447C34.3019 28.1927 33.8541 28.9976 33.3336 29.7698ZM36.1205 21.992C36.0658 22.5876 36.355 23.1456 36.87 23.448C37.836 23.9967 39.027 23.3824 39.1403 22.2781C39.2443 21.1824 39.2607 20.0976 39.1857 18.9996C39.1481 18.4721 38.8433 18.007 38.3744 17.7609C37.3225 17.2154 36.076 18.0313 36.1596 19.2122C36.2237 20.1437 36.2088 21.062 36.1205 21.992ZM34.8638 13.8345C35.2038 14.6184 36.1158 14.9708 36.8919 14.6129C37.6398 14.269 37.9751 13.3929 37.6507 12.6364C37.2209 11.629 36.7035 10.6607 36.1119 9.73852C35.3687 8.59593 33.6196 8.92886 33.3492 10.266C33.275 10.6592 33.3453 11.0429 33.5618 11.3813C34.0635 12.1644 34.4996 12.9787 34.8638 13.8345Z" fill="#004AAD"/>
</g>
<defs>
<clipPath id="clip0_2004_61">
<rect width="39.2325" height="40" fill="white"/>
</clipPath>
</defs>
</svg>
