<svg width="48" height="40" viewBox="0 0 48 40" fill="none" xmlns="http://www.w3.org/2000/svg">
<g clip-path="url(#clip0_2004_88)">
<path d="M39.8869 22.9524C39.9766 22.6443 40.3004 22.4688 40.6085 22.5585C40.9166 22.6482 41.0921 22.9719 41.0024 23.28C40.7645 24.0952 40.472 24.9103 40.1365 25.7098C39.8011 26.4977 39.4267 27.266 39.0094 27.9992C38.8495 28.2761 38.4985 28.3736 38.2177 28.2176C37.9408 28.0577 37.8433 27.7067 37.9993 27.4259C38.3971 26.7278 38.7559 26.0023 39.0679 25.2613C39.3799 24.5086 39.6568 23.7363 39.8869 22.9524ZM23.7988 2.461C24.1225 2.13728 24.649 2.13728 24.9766 2.461C25.3003 2.78471 25.3003 3.31123 24.9766 3.63884C23.7325 4.88689 24.2746 5.90483 24.9064 7.08658C25.8425 8.82995 26.9111 10.8307 25.1053 13.9587C24.8752 14.3565 24.3682 14.4891 23.9704 14.2629C23.5726 14.0328 23.44 13.5257 23.6662 13.1279C25.0117 10.7995 24.1732 9.23557 23.44 7.87051C22.5 6.09984 21.6849 4.57878 23.7988 2.461ZM31.3885 0.241808C31.7122 -0.0819048 32.2387 -0.0819048 32.5663 0.241808C32.8901 0.565521 32.8901 1.09204 32.5663 1.41966C31.3222 2.66381 31.8643 3.68565 32.4961 4.86739C33.4322 6.61076 34.5008 8.61154 32.695 11.7395C32.4649 12.1373 31.9579 12.2699 31.5601 12.0437C31.1623 11.8136 31.0297 11.3066 31.2559 10.9087C32.6014 8.58034 31.7629 7.01638 31.0297 5.65132C30.0858 3.88065 29.2707 2.35959 31.3885 0.241808ZM38.9782 2.461C39.3019 2.13728 39.8284 2.13728 40.156 2.461C40.4798 2.78471 40.4798 3.31123 40.156 3.63884C38.908 4.88689 39.454 5.90483 40.0858 7.08658C41.0219 8.82995 42.0905 10.8307 40.2847 13.9587C40.0546 14.3565 39.5476 14.4891 39.1498 14.2629C38.752 14.0328 38.6194 13.5257 38.8456 13.1279C40.1911 10.7995 39.3526 9.23557 38.6194 7.87051C37.6755 6.09984 36.8604 4.57878 38.9782 2.461ZM0.861971 8.79095C-0.0506654 7.6482 -0.17547 6.42356 0.191144 5.38611C0.374452 4.86349 0.686464 4.39547 1.08818 4.01326C1.4821 3.63494 1.96572 3.34243 2.49614 3.17083C3.60768 2.81201 4.92203 2.96802 6.08038 3.95476L6.09988 3.97036L20.9595 16.6888H47.1451C47.5741 16.6888 47.9213 17.0359 47.9213 17.4649C47.9213 17.4961 47.9174 17.5273 47.9174 17.5585C47.7184 22.2894 46.6186 26.4158 44.3565 29.7699C42.071 33.1552 38.6155 35.7293 33.7325 37.3128C33.7208 37.3167 33.7052 37.3206 33.6935 37.3245V39.6685C33.6935 39.8479 33.5453 39.9961 33.3659 39.9961H18.8495C18.6155 39.9961 18.4244 39.805 18.4244 39.571V37.3011C18.3776 37.2855 18.3347 37.2621 18.2918 37.2387C13.8105 35.1209 10.6514 32.3323 8.55698 28.9977C6.4548 25.6513 5.43685 21.7707 5.25355 17.4922C5.23405 17.0671 5.56556 16.7044 5.99458 16.6849C6.00628 16.6849 6.01798 16.6849 6.02968 16.6849V16.681H10.0897L0.975076 8.90796C0.932174 8.87285 0.897072 8.83385 0.861971 8.79095ZM1.6498 5.90093C1.45479 6.45476 1.5328 7.12558 2.03592 7.78081L12.3479 16.5835H18.4595L5.09754 5.1482L5.08194 5.1365C4.37991 4.53978 3.60768 4.43838 2.96806 4.64508C2.65994 4.74259 2.38303 4.9142 2.15292 5.1326C1.93061 5.34711 1.75511 5.60842 1.6498 5.90093ZM9.86743 28.1786C11.7941 31.2442 14.7114 33.8222 18.8534 35.7995H33.3815C37.8471 34.3292 40.9985 31.9774 43.0734 28.9041C45.0507 25.975 46.0726 22.4649 46.3339 18.3307H6.84481C7.10612 22.0281 8.04996 25.2847 9.86743 28.1786ZM36.9267 29.0835C37.1139 28.8222 37.4766 28.7675 37.7379 28.9548C37.9993 29.142 38.0539 29.5047 37.8666 29.766C37.6248 30.1014 37.3713 30.4251 37.11 30.7371C36.8565 31.0413 36.5874 31.3378 36.3066 31.6225C36.0804 31.8526 35.7138 31.8526 35.4876 31.6303C35.2574 31.4041 35.2574 31.0374 35.4798 30.8112C35.7294 30.5577 35.9751 30.2847 36.2208 29.9961C36.4626 29.7036 36.7005 29.3994 36.9267 29.0835Z" fill="#004AAD"/>
</g>
<defs>
<clipPath id="clip0_2004_88">
<rect width="47.9251" height="40" fill="white"/>
</clipPath>
</defs>
</svg>
