<svg width="32" height="32" viewBox="0 0 32 32" fill="none" xmlns="http://www.w3.org/2000/svg">
<rect x="1" y="1" width="30" height="30" rx="15" stroke="black" stroke-width="2"/>
<path d="M26.6666 28V25.3333C26.6666 23.9188 26.1047 22.5623 25.1045 21.5621C24.1044 20.5619 22.7478 20 21.3333 20H10.6666C9.25216 20 7.8956 20.5619 6.89541 21.5621C5.89522 22.5623 5.33331 23.9188 5.33331 25.3333V28" stroke="black" stroke-width="2" stroke-linecap="round" stroke-linejoin="round"/>
<path d="M15.9998 16.6667C18.9454 16.6667 21.3332 14.2789 21.3332 11.3333C21.3332 8.38781 18.9454 6 15.9998 6C13.0543 6 10.6665 8.38781 10.6665 11.3333C10.6665 14.2789 13.0543 16.6667 15.9998 16.6667Z" stroke="black" stroke-width="2" stroke-linecap="round" stroke-linejoin="round"/>
</svg>
